<?xml version="1.0" encoding="utf-8"?>
<!-- Generator: Adobe Illustrator 19.0.0, SVG Export Plug-In . SVG Version: 6.00 Build 0)  -->
<svg version="1.1" id="Layer_1" xmlns="http://www.w3.org/2000/svg" xmlns:xlink="http://www.w3.org/1999/xlink" x="0px" y="0px"
	 viewBox="0 0 433.5 102.7" style="enable-background:new 0 0 433.5 102.7;" xml:space="preserve">
<style type="text/css">
	.st0{fill:#FFFFFF;}
</style>
<g id="XMLID_6_">
	<g id="XMLID_164_">
		<path id="XMLID_58_" class="st0" d="M5.6,4.6v83.8c0,2.2,2,9.9,9.4,9.9h61.3c2.2,0,3.9-1.8,3.9-3.9V4.6H5.6z"/>
		<path id="XMLID_104_" d="M76.3,100.8H15c-9.1,0-11.9-9.1-11.9-12.4V2.1h79.6v92.3C82.7,97.9,79.9,100.8,76.3,100.8z M8.1,7.1v81.3
			c0,0.1,0.7,7.4,6.9,7.4h61.3c0.8,0,1.4-0.6,1.4-1.4V7.1H8.1z"/>
	</g>
	<g id="XMLID_56_">
		<g id="XMLID_160_">
			<path id="XMLID_57_" class="st0" d="M83.6,75L17.7,75c0,0,6.7,5.2,6.7,11.8c0,6.6-4.4,11.5-9.4,11.5l67.7,0.1
				c5,0,9.4-4.2,9.4-11.5S85.8,75,83.6,75z"/>
			<path id="XMLID_157_" d="M82.7,100.9L15,100.8c-1.4,0-2.5-1.1-2.5-2.5c0-1.4,1.1-2.5,2.5-2.5c3.8,0,6.9-4.1,6.9-9
				c0-5.3-5.7-9.8-5.7-9.8c-0.8-0.7-1.2-1.8-0.8-2.8c0.3-1,1.3-1.7,2.4-1.7c0,0,0,0,0,0l65.9,0.1c3.9,0,11,5.9,11,14.3
				C94.6,96.1,88.6,100.9,82.7,100.9z M24.1,95.8l58.6,0.1c4.1,0,6.9-3.7,6.9-9c0-5.7-4.8-9.1-6-9.3l-60.1-0.1
				c1.8,2.4,3.4,5.6,3.4,9.3C26.9,90.2,25.9,93.4,24.1,95.8z"/>
		</g>
		<g id="XMLID_156_">
			<path id="XMLID_154_" class="st0" d="M5.6,86.8c0,7.9,4.5,11.5,9.4,11.5"/>
			<path id="XMLID_155_" d="M15,100.8c-5.9,0-11.9-4.3-11.9-14c0-1.4,1.1-2.5,2.5-2.5s2.5,1.1,2.5,2.5c0,5.7,2.6,9,6.9,9
				c1.4,0,2.5,1.1,2.5,2.5S16.4,100.8,15,100.8z"/>
		</g>
	</g>
</g>
<g id="XMLID_1_">
	<rect id="XMLID_103_" x="15.8" y="18.8" width="12.4" height="5"/>
	<rect id="XMLID_88_" x="45.8" y="18.8" width="24.2" height="5"/>
	<rect id="XMLID_87_" x="34.2" y="18.8" width="4.6" height="5"/>
</g>
<g id="XMLID_3_">
	<rect id="XMLID_86_" x="15.8" y="36.2" width="15" height="5"/>
	<rect id="XMLID_85_" x="52.2" y="36.2" width="17.8" height="5"/>
	<rect id="XMLID_84_" x="35.7" y="36.2" width="10.1" height="5"/>
</g>
<g id="XMLID_5_">
	<rect id="XMLID_83_" x="57.4" y="53.6" width="12.6" height="5"/>
	<rect id="XMLID_82_" x="15.8" y="53.6" width="24.9" height="5"/>
	<rect id="XMLID_161_" x="47" y="53.6" width="4.6" height="5"/>
</g>
<g id="XMLID_4_">
	<path id="XMLID_7_" d="M201.9,17l-20.3,42.3c-7.6,15.9-13.9,29.8-18.8,41.6H160c-1.7-4.1-6.5-14.5-14.5-31.3L121,18.9v52.9
		c0,12.3,0.5,19.3,1.5,21c1,1.7,4,2.5,9.2,2.5h2.5v4.3c-6.4-0.3-11.5-0.5-15.5-0.5c-2.9,0-8.6,0.2-17.2,0.5v-4.3h4.4
		c3,0,5-0.4,6-1.3c1-0.9,1.6-2.4,1.8-4.7c0.6-6.4,0.9-13.3,0.9-20.7V29.9c0-9.4-0.2-15.5-0.6-18.5c-0.2-1.6-0.9-2.7-2-3.6
		c-1.2-0.8-3.5-1.2-6.9-1.2h-3.6V2.2c7.9,0.3,12.9,0.5,15,0.5c2.6,0,6.3-0.2,11.1-0.5c5.5,12.3,11.9,25.8,19.1,40.6l18,37l16.6-34.3
		c5.8-12,12.5-26.5,20-43.3c5.7,0.3,9.7,0.5,12,0.5c2.7,0,7.6-0.2,14.6-0.5v4.3h-4.5c-4,0-6.5,0.7-7.4,2.1c-0.9,1.4-1.3,6.4-1.3,15
		v50c0,11.1,0.5,17.5,1.4,19.2c0.9,1.6,3.6,2.5,7.9,2.5h3.9v4.3c-6.3-0.3-12.4-0.5-18.2-0.5c-6.4,0-13.1,0.2-20.1,0.5v-4.3h4.5
		c3.6,0,5.8-0.8,6.5-2.4c0.8-1.6,1.1-8.3,1.1-20.3V17z"/>
	<path id="XMLID_14_" d="M255.2,17.7V65c0,10.8,0.2,18.3,0.6,22.5c0.3,3.2,0.9,5.2,1.6,5.9c0.8,0.7,2.9,1.2,6.6,1.5l4.4,0.3v4.3
		c-5-0.3-9.5-0.5-13.5-0.5c-2.8,0-9.2,0.2-19.2,0.5v-4.3h4.9c3,0,4.9-0.4,5.8-1.2c0.9-0.8,1.5-2.4,1.7-4.9c0.5-5,0.8-11.8,0.8-20.5
		v-34c0-6.4-0.1-12.7-0.2-19c-0.1-2.6-0.4-4.5-1.1-5.4c-0.6-1-1.5-1.9-2.7-2.6c-1.2-0.8-2.9-1.2-5-1.2h-4.2V2.2
		c5.8,0.3,10.2,0.5,13.3,0.5c3.3,0,6.9-0.2,10.8-0.5c4.5,5.5,8.8,10.9,12.8,16.1c4,5.2,8.1,10.5,12.4,15.8l23.4,28.7
		c8.4,10.3,14.5,17.5,18.3,21.5V40.4c0-18.4-0.3-28.4-1-30.1c-0.7-1.7-3.3-2.8-7.9-3.3l-5.1-0.5V2.2c7.3,0.3,13,0.5,17.1,0.5
		c4.2,0,9.7-0.2,16.4-0.5v4.3h-5.3c-4.2,0-6.7,1.4-7.3,4.2c-0.4,1.9-0.6,11.9-0.6,30v30.9c0,8.3,0.4,18.2,1.1,29.8
		c-6.2-1-9.8-1.7-10.8-2.1c-1-0.4-2-1.2-2.9-2.2c-5.1-5.6-10.4-11.8-15.9-18.7L255.2,17.7z"/>
</g>
<g id="XMLID_2_">
	<g id="XMLID_38_">
		<path id="XMLID_39_" d="M422.8,28l-0.5-12c-4-2.6-8.2-4.6-12.5-5.9c-4.4-1.3-8.9-1.9-13.7-1.9c-12.1,0-21.8,3.7-29.1,11
			c-7.3,7.4-10.9,17.2-10.9,29.5c0,8.7,1.8,16.4,5.5,23.1c3.7,6.8,9,12.1,15.8,16.1c6.8,3.9,14,5.9,21.6,5.9c6,0,11.9-0.7,17.8-2.1
			c4.4-1,8.8-3.2,13.2-6.5l1.4,1.3c-0.9,2.1-1.8,4.1-2.6,6.3c-5.2,2.6-10.5,4.6-15.8,5.9c-5.3,1.3-10.7,2-16,2
			c-11,0-20.7-2.1-29.1-6.4c-8.4-4.3-14.8-10.1-19.3-17.6c-4.5-7.5-6.7-16-6.7-25.4c0-9.5,2.3-17.9,6.8-25.4
			c4.5-7.5,10.9-13.2,19.2-17.3c8.3-4.1,18.4-6.2,30.5-6.2c6.3,0,13.7,1,22.2,3.1c4.2,1,7.6,1.7,10.3,2.2c-2,4.8-3.2,11.6-3.5,20.3
			H422.8z"/>
	</g>
</g>
</svg>
